<svg width="512" height="512" viewBox="0 0 512 512" fill="none" xmlns="http://www.w3.org/2000/svg">
  <rect width="512" height="512" rx="96" fill="url(#gradient)"/>
  <path d="M256 128C256 175.182 217.182 214 170 214C122.818 214 84 175.182 84 128C84 80.8176 122.818 42 170 42C217.182 42 256 80.8176 256 128Z" fill="white"/>
  <path d="M170 298C170 298 256 384 256 384C256 384 342 298 342 298C342 298 256 426 256 426C256 426 170 298 170 298Z" fill="white"/>
  <defs>
    <linearGradient id="gradient" x1="0" y1="0" x2="512" y2="512" gradientUnits="userSpaceOnUse">
      <stop stop-color="#8B5CF6"/>
      <stop offset="1" stop-color="#6366F1"/>
    </linearGradient>
  </defs>
</svg>
